<svg
                width="16"
                height="16"
                viewBox="0 0 16 16"
                fill="none"
                xmlns="http://www.w3.org/2000/svg"
              >
                <path
                  d="M4.30769 6.46154C4.30769 6.27897 4.36183 6.1005 4.46326 5.9487C4.56469 5.7969 4.70886 5.67859 4.87753 5.60873C5.0462 5.53886 5.2318 5.52058 5.41085 5.5562C5.58991 5.59181 5.75439 5.67973 5.88349 5.80882C6.01258 5.93792 6.10049 6.10239 6.13611 6.28145C6.17173 6.46051 6.15345 6.64611 6.08358 6.81478C6.01372 6.98345 5.8954 7.12762 5.74361 7.22905C5.59181 7.33048 5.41334 7.38461 5.23077 7.38461C4.98596 7.38461 4.75117 7.28736 4.57806 7.11425C4.40495 6.94114 4.30769 6.70635 4.30769 6.46154ZM10.7692 7.38461C10.9518 7.38461 11.1303 7.33048 11.2821 7.22905C11.4339 7.12762 11.5522 6.98345 11.622 6.81478C11.6919 6.64611 11.7102 6.46051 11.6746 6.28145C11.639 6.10239 11.551 5.93792 11.4219 5.80882C11.2929 5.67973 11.1284 5.59181 10.9493 5.5562C10.7703 5.52058 10.5847 5.53886 10.416 5.60873C10.2473 5.67859 10.1032 5.7969 10.0017 5.9487C9.90029 6.1005 9.84616 6.27897 9.84616 6.46154C9.84616 6.70635 9.94341 6.94114 10.1165 7.11425C10.2896 7.28736 10.5244 7.38461 10.7692 7.38461ZM16 8C16 9.58225 15.5308 11.129 14.6518 12.4446C13.7727 13.7602 12.5233 14.7855 11.0615 15.391C9.59966 15.9965 7.99113 16.155 6.43928 15.8463C4.88743 15.5376 3.46197 14.7757 2.34315 13.6569C1.22433 12.538 0.462403 11.1126 0.153721 9.56072C-0.15496 8.00887 0.00346628 6.40034 0.608967 4.93853C1.21447 3.47672 2.23985 2.22729 3.55544 1.34824C4.87103 0.469192 6.41775 0 8 0C10.121 0.00240243 12.1544 0.846028 13.6542 2.3458C15.154 3.84557 15.9976 5.879 16 8ZM14.7692 8C14.7692 6.66117 14.3722 5.35241 13.6284 4.23922C12.8846 3.12602 11.8274 2.25839 10.5905 1.74605C9.35356 1.2337 7.99249 1.09965 6.67939 1.36084C5.36629 1.62203 4.16013 2.26674 3.21343 3.21343C2.26674 4.16012 1.62203 5.36629 1.36084 6.67939C1.09965 7.99249 1.2337 9.35356 1.74605 10.5905C2.2584 11.8274 3.12603 12.8846 4.23922 13.6284C5.35241 14.3722 6.66117 14.7692 8 14.7692C9.79469 14.7672 11.5153 14.0534 12.7843 12.7843C14.0534 11.5153 14.7672 9.79468 14.7692 8ZM11.5065 9.31315C11.3652 9.23145 11.1972 9.20922 11.0396 9.25134C10.8819 9.29346 10.7474 9.39649 10.6657 9.53777C10.3299 10.1179 9.81457 10.5732 9.19746 10.8351C8.63345 11.0736 8.01103 11.1383 7.41003 11.0208C6.80902 10.9032 6.25682 10.6089 5.82423 10.1754C5.6339 9.98507 5.46922 9.77072 5.33439 9.53777C5.25266 9.39649 5.11816 9.29346 4.96047 9.25135C4.80278 9.20924 4.63482 9.2315 4.49354 9.31323C4.35226 9.39496 4.24924 9.52946 4.20713 9.68715C4.16502 9.84484 4.18727 10.0128 4.269 10.1541C4.64747 10.8086 5.19145 11.352 5.84634 11.7298C6.50123 12.1076 7.24397 12.3065 8.00002 12.3065C8.75607 12.3065 9.49882 12.1076 10.1537 11.7298C10.8086 11.3519 11.3525 10.8085 11.731 10.154C11.8127 10.0127 11.835 9.84479 11.7928 9.68711C11.7507 9.52944 11.6477 9.39495 11.5065 9.31323V9.31315Z"
                  fill="#66CB9F"
                />
              </svg>