<svg
                width="16"
                height="16"
                viewBox="0 0 16 16"
                fill="none"
                xmlns="http://www.w3.org/2000/svg"
              >
                <path
                  d="M4.30769 6.46154C4.30769 6.27897 4.36183 6.1005 4.46326 5.9487C4.56469 5.7969 4.70886 5.67859 4.87753 5.60873C5.0462 5.53886 5.2318 5.52058 5.41085 5.5562C5.58991 5.59181 5.75439 5.67973 5.88349 5.80882C6.01258 5.93792 6.10049 6.10239 6.13611 6.28145C6.17173 6.46051 6.15345 6.64611 6.08358 6.81478C6.01372 6.98345 5.8954 7.12762 5.74361 7.22905C5.59181 7.33048 5.41334 7.38461 5.23077 7.38461C4.98596 7.38461 4.75117 7.28736 4.57806 7.11425C4.40495 6.94114 4.30769 6.70635 4.30769 6.46154ZM10.7692 7.38461C10.9518 7.38461 11.1303 7.33048 11.2821 7.22905C11.4339 7.12762 11.5522 6.98345 11.622 6.81478C11.6919 6.64611 11.7102 6.46051 11.6746 6.28145C11.639 6.10239 11.551 5.93792 11.4219 5.80882C11.2929 5.67973 11.1284 5.59181 10.9493 5.5562C10.7703 5.52058 10.5847 5.53886 10.416 5.60873C10.2473 5.67859 10.1032 5.7969 10.0017 5.9487C9.90029 6.1005 9.84616 6.27897 9.84616 6.46154C9.84616 6.70635 9.94341 6.94114 10.1165 7.11425C10.2896 7.28736 10.5244 7.38461 10.7692 7.38461ZM16 8C16 9.58225 15.5308 11.129 14.6518 12.4446C13.7727 13.7602 12.5233 14.7855 11.0615 15.391C9.59966 15.9965 7.99113 16.155 6.43928 15.8463C4.88743 15.5376 3.46197 14.7757 2.34315 13.6569C1.22433 12.538 0.462403 11.1126 0.153721 9.56072C-0.15496 8.00887 0.00346628 6.40034 0.608967 4.93853C1.21447 3.47672 2.23985 2.22729 3.55544 1.34824C4.87103 0.469192 6.41775 0 8 0C10.121 0.00240243 12.1544 0.846028 13.6542 2.3458C15.154 3.84557 15.9976 5.879 16 8ZM14.7692 8C14.7692 6.66117 14.3722 5.35241 13.6284 4.23922C12.8846 3.12602 11.8274 2.25839 10.5905 1.74605C9.35356 1.2337 7.99249 1.09965 6.67939 1.36084C5.36629 1.62203 4.16013 2.26674 3.21343 3.21343C2.26674 4.16012 1.62203 5.36629 1.36084 6.67939C1.09965 7.99249 1.2337 9.35356 1.74605 10.5905C2.2584 11.8274 3.12603 12.8846 4.23922 13.6284C5.35241 14.3722 6.66117 14.7692 8 14.7692C9.79469 14.7672 11.5153 14.0534 12.7843 12.7843C14.0534 11.5153 14.7672 9.79468 14.7692 8ZM11.046 10.4924C10.5786 10.0255 10.0102 9.67227 9.38452 9.46005C8.7589 9.24782 8.09286 9.18227 7.43786 9.26844C6.78286 9.35462 6.15644 9.59022 5.607 9.95704C5.05755 10.3239 4.59979 10.8121 4.26908 11.384C4.22861 11.4539 4.20231 11.5312 4.19169 11.6113C4.18106 11.6914 4.18632 11.7728 4.20717 11.8509C4.22801 11.929 4.26403 12.0022 4.31316 12.0664C4.3623 12.1305 4.42359 12.1844 4.49354 12.2248C4.56349 12.2653 4.64073 12.2916 4.72084 12.3022C4.80095 12.3129 4.88237 12.3076 4.96045 12.2868C5.03853 12.2659 5.11174 12.2299 5.1759 12.1808C5.24006 12.1316 5.29391 12.0703 5.33439 12.0004C5.67022 11.4202 6.18547 10.9649 6.80254 10.7031C7.36654 10.4645 7.98893 10.3998 8.58992 10.5174C9.19092 10.6349 9.74311 10.9292 10.1757 11.3627C10.3661 11.553 10.5308 11.7674 10.6657 12.0004C10.7474 12.1417 10.8819 12.2447 11.0396 12.2868C11.1973 12.3289 11.3653 12.3066 11.5065 12.2249C11.6478 12.1432 11.7508 12.0087 11.793 11.851C11.8351 11.6933 11.8128 11.5254 11.7311 11.3841C11.5425 11.0583 11.3122 10.7585 11.046 10.4924Z"
                  fill="#F16063"
                />
              </svg>